<?xml version="1.0" encoding="UTF-8" standalone="no"?>
<svg width="800" height="500" viewBox="0 0 800 500" xmlns="http://www.w3.org/2000/svg">
  <!-- Bakgrund med stjärnhimmel -->
  <rect width="800" height="500" fill="#0B0E17" />
  
  <!-- Stjärnor -->
  <circle cx="50" cy="50" r="1" fill="white" />
  <circle cx="120" cy="60" r="1.5" fill="white" />
  <circle cx="200" cy="40" r="1" fill="white" />
  <circle cx="280" cy="90" r="1.2" fill="white" />
  <circle cx="350" cy="30" r="1" fill="white" />
  <circle cx="420" cy="70" r="1.5" fill="white" />
  <circle cx="550" cy="40" r="1" fill="white" />
  <circle cx="650" cy="80" r="1.2" fill="white" />
  <circle cx="750" cy="30" r="1" fill="white" />
  <circle cx="70" cy="150" r="1.5" fill="white" />
  <circle cx="150" cy="120" r="1" fill="white" />
  <circle cx="250" cy="180" r="1.2" fill="white" />
  <circle cx="380" cy="130" r="1" fill="white" />
  <circle cx="480" cy="170" r="1.5" fill="white" />
  <circle cx="580" cy="140" r="1" fill="white" />
  <circle cx="670" cy="190" r="1.2" fill="white" />
  <circle cx="40" cy="250" r="1" fill="white" />
  <circle cx="130" cy="220" r="1.5" fill="white" />
  <circle cx="230" cy="280" r="1" fill="white" />
  <circle cx="330" cy="240" r="1.2" fill="white" />
  <circle cx="430" cy="270" r="1" fill="white" />
  <circle cx="520" cy="230" r="1.5" fill="white" />
  <circle cx="620" cy="250" r="1" fill="white" />
  <circle cx="720" cy="210" r="1.2" fill="white" />
  <circle cx="80" cy="350" r="1" fill="white" />
  <circle cx="180" cy="320" r="1.5" fill="white" />
  <circle cx="280" cy="380" r="1" fill="white" />
  <circle cx="370" cy="340" r="1.2" fill="white" />
  <circle cx="470" cy="370" r="1" fill="white" />
  <circle cx="560" cy="330" r="1.5" fill="white" />
  <circle cx="660" cy="350" r="1" fill="white" />
  <circle cx="760" cy="310" r="1.2" fill="white" />
  
  <!-- Laddningscirkel -->
  <circle cx="400" cy="230" r="40" fill="none" stroke="#1E90FF" stroke-width="5" stroke-dasharray="180 220" stroke-dashoffset="0">
    <animateTransform 
      attributeName="transform" 
      attributeType="XML" 
      type="rotate" 
      from="0 400 230" 
      to="360 400 230" 
      dur="1.5s" 
      repeatCount="indefinite" />
  </circle>
  
  <!-- Laddningstext -->
  <text x="400" y="300" font-family="Arial" font-size="20" fill="#E5E7EB" text-anchor="middle">Laddar...</text>
</svg> 